<svg version="1.2" xmlns="http://www.w3.org/2000/svg" viewBox="0 0 396 65" width="396" height="65"><style></style><path  d="m196.9 21.1v12.2h22.2l-22.2 22.2 9.5 9 20.1-20.7v20.7h13.2v-43.4z"/><path  d="m245.7 22.7h12.6v6.6h0.2q2-3.8 4.8-5.7 2.8-1.9 7-1.9 1.1 0 2.2 0.1 1.1 0 2 0.3v11.5q-1.3-0.4-2.7-0.6-1.3-0.2-2.7-0.2-3.6 0-5.7 1-2.1 1-3.3 2.9-1.1 1.7-1.4 4.3-0.4 2.5-0.4 5.5v17.2h-12.6z"/><path  d="m317.3 56.6q-3 3.8-7.7 6-4.6 2.1-9.6 2.1-4.7 0-8.9-1.6-4.1-1.5-7.3-4.3-3-2.8-4.8-6.8-1.7-3.9-1.7-8.8 0-4.9 1.7-8.9 1.8-3.9 4.8-6.7 3.2-2.9 7.3-4.4 4.2-1.5 8.9-1.5 4.4 0 7.9 1.5 3.7 1.5 6.1 4.4 2.5 2.8 3.9 6.7 1.3 4 1.3 8.9v3.9h-29.3q0.8 3.7 3.3 5.8 2.5 2.2 6.2 2.2 3.1 0 5.3-1.4 2.1-1.4 3.8-3.6zm-10.8-18.1q0.1-3.2-2.1-5.4-2.2-2.3-5.6-2.3-2.1 0-3.7 0.7-1.6 0.6-2.8 1.7-1.1 1-1.8 2.5-0.6 1.3-0.6 2.8z"/><path  d="m354.7 35.9q-1-1.3-2.6-2.2-1.7-0.9-3.7-0.9-4.8 0-7.5 2.9-2.6 2.8-2.6 7.5 0 4.6 2.6 7.5 2.7 2.8 7.5 2.8 2.1 0 3.7-0.9 1.5-0.9 2.6-2.2l8.3 8.8q-2.9 3-7 4.3-3.9 1.2-7.6 1.2-4.7 0-8.9-1.6-4.1-1.5-7.3-4.3-3-2.8-4.8-6.8-1.7-3.9-1.7-8.8 0-4.9 1.7-8.9 1.8-3.9 4.8-6.7 3.2-2.9 7.3-4.4 4.2-1.5 8.9-1.5 3.7 0 7.6 1.2 4.1 1.2 7 4.2z"/><path  d="m395.5 32.8h-11.1v13.7q0 1.6 0.1 3.1 0.2 1.3 0.8 2.3 0.6 1 1.8 1.6 1.2 0.5 3.3 0.5 1 0 2.6-0.1 1.7-0.3 2.5-1v10.5q-2.1 0.8-4.4 1-2.3 0.3-4.4 0.3-3.2 0-5.9-0.7-2.7-0.7-4.8-2.1-2-1.5-3.2-3.9-1.1-2.4-1.1-5.7v-19.5h-8.1v-10.1h8.1v-12.2h12.7v12.2h11.1z"/><path  d="m40 56.7q-3 3.8-7.6 5.9-4.7 2.1-9.6 2.1-4.8 0-9-1.5-4.1-1.5-7.2-4.3-3.1-2.8-4.8-6.8-1.8-4-1.8-8.9 0-4.8 1.8-8.8 1.7-4 4.8-6.7 3.1-2.9 7.2-4.4 4.2-1.5 9-1.5 4.3 0 7.9 1.5 3.6 1.5 6.1 4.4 2.5 2.7 3.8 6.7 1.4 4 1.4 8.8v4h-29.4q0.8 3.6 3.3 5.8 2.6 2.1 6.3 2.1 3.1 0 5.2-1.3 2.2-1.4 3.8-3.6zm-10.7-18.1q0.1-3.2-2.1-5.5-2.2-2.2-5.7-2.2-2.1 0-3.7 0.6-1.6 0.7-2.8 1.8-1.1 1-1.7 2.5-0.6 1.3-0.7 2.8z"/><path  d="m49.7 0h12.6v38.9l14-16.1h15.5l-16.2 18.4 16.6 22.5h-15.9l-13.8-20.7h-0.2v20.7h-12.6z"/><path  d="m95 43.2q0-4.8 1.8-8.8 1.7-4 4.8-6.7 3.1-2.9 7.2-4.4 4.2-1.5 9-1.5 4.7 0 8.8 1.5 4.2 1.5 7.3 4.4 3.1 2.7 4.9 6.7 1.7 4 1.7 8.8 0 4.9-1.7 8.9-1.8 4-4.9 6.8-3.1 2.8-7.3 4.3-4.1 1.5-8.8 1.5-4.8 0-9-1.5-4.1-1.5-7.2-4.3-3.1-2.8-4.8-6.8-1.8-4-1.8-8.9zm12.6 0q0 4.7 2.7 7.6 2.7 2.8 7.5 2.8 4.8 0 7.4-2.8 2.7-2.9 2.7-7.6 0-4.6-2.7-7.5-2.6-2.8-7.4-2.8-4.8 0-7.5 2.8-2.7 2.9-2.7 7.5zm10.2-39.2h17.2l-14.5 12.2h-11.2z"/><path  d="m191 63.7h-11.7v-5.4h-0.1q-0.8 1.1-2.1 2.3-1.1 1.1-2.8 2-1.6 1-3.6 1.6-2 0.5-4.1 0.5-4.5 0-8.3-1.5-3.7-1.6-6.4-4.4-2.6-2.8-4-6.7-1.4-3.9-1.4-8.5 0-4.3 1.2-8.2 1.4-4 3.7-7 2.5-3 5.9-4.8 3.5-1.8 7.9-1.8 3.9 0 7.3 1.2 3.5 1.2 5.7 4.1h0.1v-27.1h12.7zm-11.7-20.5q0-4.6-2.7-7.5-2.6-2.9-7.4-2.9-4.8 0-7.5 2.9-2.6 2.9-2.6 7.5 0 4.7 2.6 7.5 2.7 2.9 7.5 2.9 4.8 0 7.4-2.9 2.7-2.8 2.7-7.5z"/></svg>