<svg width="210" height="42" viewBox="0 0 210 42" fill="none" xmlns="http://www.w3.org/2000/svg">
<path d="M0 22.1501V30.4535C0 30.8217 0.195074 31.162 0.512025 31.3468L17.6287 41.3259C17.9029 41.4857 18.2463 41.287 18.2463 40.9686V32.3436C18.2463 31.8619 17.9895 31.4171 17.5733 31.178L0.922945 21.6121C0.511766 21.3759 0 21.6742 0 22.1501Z" fill="black"/>
<path d="M9.30304 11.3616V19.7215C9.30304 20.0522 9.47667 20.3573 9.76113 20.5238C14.04 23.0288 21.9175 27.643 22.5123 28.0016C23.1291 28.3114 23.3861 28.8278 23.3861 29.1893V37.8501C23.3861 38.1729 23.7381 38.371 24.012 38.2024L27.056 36.3292C27.3305 36.1603 27.4979 35.8601 27.4979 35.5366V21.7189C27.4979 21.165 27.2036 20.6533 26.7259 20.3767L10.2278 10.8247C9.81658 10.5866 9.30304 10.8848 9.30304 11.3616Z" fill="black"/>
<path d="M18.2463 0.620595V8.98048C18.2463 9.31125 18.4199 9.61632 18.7044 9.78285C22.9832 12.2878 30.8607 16.902 31.4556 17.2606C32.0724 17.5704 32.3293 18.0868 32.3293 18.4483V32.5829C32.3293 32.9057 32.6813 33.1038 32.9553 32.9352L35.9992 31.062C36.2738 30.8931 36.4412 30.5929 36.4412 30.2694V10.978C36.4412 10.4241 36.1468 9.91229 35.6691 9.63572L19.171 0.0836924C18.7598 -0.154373 18.2463 0.143794 18.2463 0.620595Z" fill="black"/>
<path d="M54.8568 37.2603V13.1724H61.5051V14.9549C62.3241 14.1841 63.2715 13.5819 64.3474 13.1483C65.4234 12.7147 66.5635 12.498 67.7679 12.498C69.4059 12.498 70.9074 12.8753 72.2723 13.6301C73.6534 14.3848 74.7614 15.3885 75.5965 16.6411C76.4476 15.3885 77.5556 14.3848 78.9206 13.6301C80.2856 12.8753 81.779 12.498 83.4009 12.498C85.1513 12.498 86.7331 12.9235 88.1462 13.7746C89.5755 14.6257 90.7156 15.7659 91.5667 17.1951C92.4178 18.6082 92.8434 20.19 92.8434 21.9404V37.2603H86.1951V23.7711C86.1951 22.936 85.9864 22.1813 85.5688 21.5068C85.1674 20.8163 84.6294 20.2703 83.955 19.8688C83.2805 19.4513 82.5257 19.2426 81.6907 19.2426C80.8557 19.2426 80.0929 19.4433 79.4024 19.8448C78.7279 20.2462 78.1819 20.7922 77.7644 21.4827C77.3629 22.1572 77.1622 22.92 77.1622 23.7711V37.2603H70.5139V23.7711C70.5139 22.92 70.3132 22.1572 69.9117 21.4827C69.5103 20.7922 68.9643 20.2462 68.2738 19.8448C67.5993 19.4433 66.8445 19.2426 66.0095 19.2426C65.1905 19.2426 64.4358 19.4513 63.7452 19.8688C63.0708 20.2703 62.5248 20.8163 62.1073 21.5068C61.7058 22.1813 61.5051 22.936 61.5051 23.7711V37.2603H54.8568Z" fill="black"/>
<path d="M97.1875 13.1724H103.836V37.2603H97.1875V13.1724ZM100.56 10.4023C99.5963 10.4023 98.7853 10.0811 98.1269 9.4388C97.4685 8.79645 97.1393 8.00156 97.1393 7.0541C97.1393 6.10664 97.4685 5.31174 98.1269 4.6694C98.7853 4.02706 99.5882 3.70589 100.536 3.70589C101.483 3.70589 102.278 4.02706 102.92 4.6694C103.579 5.31174 103.908 6.10664 103.908 7.0541C103.908 8.00156 103.587 8.79645 102.944 9.4388C102.318 10.0811 101.523 10.4023 100.56 10.4023Z" fill="black"/>
<path d="M108.891 37.2603V13.1724H115.539V14.9549C116.358 14.1841 117.305 13.5819 118.381 13.1483C119.457 12.7147 120.597 12.498 121.802 12.498C123.44 12.498 124.941 12.8753 126.306 13.6301C127.687 14.3848 128.795 15.3885 129.63 16.6411C130.482 15.3885 131.59 14.3848 132.955 13.6301C134.32 12.8753 135.813 12.498 137.435 12.498C139.185 12.498 140.767 12.9235 142.18 13.7746C143.609 14.6257 144.75 15.7659 145.601 17.1951C146.452 18.6082 146.877 20.19 146.877 21.9404V37.2603H140.229V23.7711C140.229 22.936 140.02 22.1813 139.603 21.5068C139.201 20.8163 138.663 20.2703 137.989 19.8688C137.314 19.4513 136.56 19.2426 135.725 19.2426C134.89 19.2426 134.127 19.4433 133.436 19.8448C132.762 20.2462 132.216 20.7922 131.798 21.4827C131.397 22.1572 131.196 22.92 131.196 23.7711V37.2603H124.548V23.7711C124.548 22.92 124.347 22.1572 123.946 21.4827C123.544 20.7922 122.998 20.2462 122.308 19.8448C121.633 19.4433 120.879 19.2426 120.043 19.2426C119.224 19.2426 118.47 19.4513 117.779 19.8688C117.105 20.2703 116.559 20.8163 116.141 21.5068C115.74 22.1813 115.539 22.936 115.539 23.7711V37.2603H108.891Z" fill="black"/>
<path d="M161.35 37.8866C159.134 37.8866 157.11 37.3165 155.28 36.1763C153.465 35.0362 152.012 33.5106 150.92 31.5996C149.844 29.6726 149.306 27.5448 149.306 25.2164C149.306 23.4499 149.619 21.8039 150.245 20.2783C150.871 18.7367 151.731 17.3878 152.823 16.2316C153.931 15.0593 155.215 14.144 156.677 13.4856C158.138 12.8272 159.696 12.498 161.35 12.498C163.566 12.498 165.581 13.068 167.396 14.2082C169.226 15.3484 170.68 16.8819 171.756 18.809C172.848 20.736 173.394 22.8718 173.394 25.2164C173.394 26.9667 173.08 28.6047 172.454 30.1303C171.828 31.6558 170.961 33.0048 169.853 34.177C168.761 35.3333 167.484 36.2406 166.023 36.899C164.577 37.5574 163.02 37.8866 161.35 37.8866ZM161.35 31.2383C162.377 31.2383 163.301 30.9653 164.12 30.4193C164.939 29.8573 165.581 29.1186 166.047 28.2032C166.512 27.2879 166.745 26.2923 166.745 25.2164C166.745 24.1083 166.496 23.0966 165.999 22.1813C165.517 21.2499 164.866 20.5112 164.047 19.9652C163.229 19.4192 162.329 19.1462 161.35 19.1462C160.338 19.1462 159.423 19.4272 158.604 19.9893C157.785 20.5513 157.134 21.29 156.653 22.2054C156.187 23.1207 155.954 24.1244 155.954 25.2164C155.954 26.3565 156.195 27.3843 156.677 28.2996C157.174 29.1989 157.833 29.9135 158.652 30.4434C159.471 30.9734 160.37 31.2383 161.35 31.2383Z" fill="black"/>
<path d="M198.946 21.9404V37.2603H192.298V23.7711C192.298 22.92 192.089 22.1572 191.671 21.4827C191.27 20.7922 190.724 20.2462 190.033 19.8448C189.359 19.4433 188.604 19.2426 187.769 19.2426C186.934 19.2426 186.171 19.4433 185.481 19.8448C184.79 20.2462 184.244 20.7922 183.843 21.4827C183.441 22.1572 183.241 22.92 183.241 23.7711V37.2603H176.592L176.568 13.1724H183.217L183.241 14.9549C184.044 14.1841 184.983 13.5819 186.059 13.1483C187.151 12.7147 188.299 12.498 189.503 12.498C191.254 12.498 192.836 12.9235 194.249 13.7746C195.678 14.6257 196.818 15.7659 197.669 17.1951C198.52 18.6082 198.946 20.19 198.946 21.9404Z" fill="black"/>
<path d="M203.279 13.1724H209.928V37.2603H203.279V13.1724ZM206.652 10.4023C205.688 10.4023 204.877 10.0811 204.219 9.4388C203.561 8.79645 203.231 8.00156 203.231 7.0541C203.231 6.10664 203.561 5.31174 204.219 4.6694C204.877 4.02706 205.68 3.70589 206.628 3.70589C207.575 3.70589 208.37 4.02706 209.012 4.6694C209.671 5.31174 210 6.10664 210 7.0541C210 8.00156 209.679 8.79645 209.036 9.4388C208.41 10.0811 207.615 10.4023 206.652 10.4023Z" fill="black"/>
</svg>
