<svg width="535" height="131" viewBox="0 0 535 131" fill="none" xmlns="http://www.w3.org/2000/svg">
<path d="M160 30.7685H168.726L178.202 59.4094L187.867 30.7685H196.217L182.425 70.0555V104.538H173.793V70.0555L160 30.7685Z" fill="black"/>
<path d="M213.462 78.7231C210.835 80.9842 207.27 83.6222 202.766 86.4486V91.065C202.766 95.022 205.299 97.1889 208.771 97.1889C212.336 97.1889 214.87 95.022 214.87 91.065V87.3907L222.469 85.4122V91.3477C222.469 100.015 216.277 105.291 208.489 105.291C200.796 105.291 194.697 100.015 194.697 91.3477V60.1631C194.697 51.4954 200.796 46.2195 208.583 46.2195C215.339 46.2195 222.657 49.8938 222.657 61.3878C222.657 68.4538 219.842 73.4471 213.462 78.7231ZM202.766 60.5399V78.3462C205.487 76.5562 207.739 74.8603 209.24 73.4471C213.087 69.867 214.588 66.5696 214.588 61.9531C214.588 56.0177 211.773 53.945 208.489 53.945C204.924 53.945 202.766 56.3945 202.766 60.5399ZM208.958 27.5653H218.06L208.02 42.451H200.702L208.958 27.5653Z" fill="black"/>
<path d="M227.161 46.9732H233.353V36.8924L241.422 33.5007V46.9732H250.993V54.0392H241.422V90.4055C241.422 94.7393 243.862 97.3773 247.521 97.3773C249.022 97.3773 250.336 96.9062 251.743 95.8699L253.995 103.03C251.931 104.538 249.116 105.291 246.208 105.291C237.2 105.291 233.353 98.5079 233.353 90.4055V54.0392H227.161V46.9732Z" fill="black"/>
<path d="M278.385 46.9732H286.736V104.538H281.012L279.605 101.334C276.79 103.972 273.318 105.291 269.659 105.291C263.185 105.291 257.743 100.769 257.743 91.3477V46.9732H266.094V89.5576C266.094 94.5509 268.158 97.0005 272.005 97.0005C274.163 97.0005 276.321 96.0583 278.385 94.0798V46.9732ZM272.755 27.5653H281.857L271.817 42.451H264.499L272.755 27.5653Z" fill="black"/>
<path d="M295.406 46.9732H301.13L302.443 50.2707C305.352 47.6327 309.105 46.2195 312.764 46.2195C319.332 46.2195 324.774 50.7417 324.774 60.1631V104.538H316.424V61.9531C316.424 57.2425 314.641 54.5103 310.419 54.5103C307.979 54.5103 305.821 55.5466 303.757 57.5251V104.538H295.406V46.9732Z" fill="black"/>
<path d="M353.797 29.8264L362.147 27.7537V104.538H356.424L355.016 100.957C352.108 103.69 348.355 105.291 344.602 105.291C338.315 105.291 332.78 100.769 332.78 91.3477V60.1631C332.78 50.7417 338.315 46.2195 344.602 46.2195C347.886 46.2195 351.076 47.4443 353.797 49.517V29.8264ZM341.13 61.9531V89.5576C341.13 94.2683 342.819 97.0005 346.947 97.0005C349.481 97.0005 351.733 95.8699 353.797 93.703V57.8077C351.733 55.6408 349.481 54.5103 346.947 54.5103C342.819 54.5103 341.13 57.2425 341.13 61.9531Z" fill="black"/>
<path d="M389.112 78.7231C386.485 80.9842 382.92 83.6222 378.416 86.4486V91.065C378.416 95.022 380.949 97.1889 384.421 97.1889C387.986 97.1889 390.52 95.022 390.52 91.065V87.3907L398.12 85.4122V91.3477C398.12 100.015 391.927 105.291 384.139 105.291C376.446 105.291 370.347 100.015 370.347 91.3477V60.1631C370.347 51.4954 376.446 46.2195 384.233 46.2195C390.989 46.2195 398.307 49.8938 398.307 61.3878C398.307 68.4538 395.492 73.4471 389.112 78.7231ZM378.416 60.5399V78.3462C381.137 76.5562 383.389 74.8603 384.89 73.4471C388.737 69.867 390.238 66.5696 390.238 61.9531C390.238 56.0177 387.423 53.945 384.139 53.945C380.574 53.945 378.416 56.3945 378.416 60.5399ZM384.608 27.5653H393.71L383.67 42.451H376.352L384.608 27.5653Z" fill="black"/>
<path d="M433.168 30.7685H441.706L454.467 104.538H446.116L444.427 93.8914H430.729L429.134 104.538H420.783L433.168 30.7685ZM437.484 49.7054L431.855 86.637H443.301L437.484 49.7054Z" fill="black"/>
<path d="M472.466 46.2195C482.036 46.2195 486.259 51.8723 486.259 58.8441V62.6126H478.659V59.9746C478.659 56.2061 476.501 54.1334 472.372 54.1334C468.056 54.1334 465.992 56.3003 465.992 59.692C465.992 61.6705 466.649 63.649 469.464 66.6638C472.935 70.5265 479.222 75.3314 482.506 79.4768C485.602 83.3395 486.54 87.2965 486.54 91.065C486.54 99.45 482.13 105.291 472.091 105.291C462.99 105.291 457.454 100.298 457.454 91.9129V85.4122L465.054 87.3907V91.2534C465.054 94.9278 467.4 97.2831 472.091 97.2831C476.595 97.2831 478.753 95.1162 478.753 90.7824C478.753 88.1444 478.002 86.4486 475.469 83.528C471.246 78.6289 465.711 74.5777 462.427 70.715C459.049 66.6638 457.923 62.8953 457.923 59.2209C457.923 50.836 463.646 46.2195 472.466 46.2195Z" fill="black"/>
<path d="M493.505 46.9732H501.856V104.538H493.505V46.9732ZM497.54 28.6016C500.918 28.6016 502.513 30.8627 502.513 33.6891C502.513 36.6098 500.918 38.9651 497.54 38.9651C494.35 38.9651 492.755 36.6098 492.755 33.6891C492.755 30.8627 494.35 28.6016 497.54 28.6016Z" fill="black"/>
<path d="M507.266 46.9732H513.647V41.8857C513.647 33.2181 517.963 27 526.688 27C529.503 27 532.224 27.6595 534.57 28.8843L532.318 36.2329C530.911 35.2908 529.316 34.7255 527.627 34.7255C523.592 34.7255 521.622 37.6461 521.622 41.9799V46.9732H531.098V54.0392H521.622V104.538H513.647V54.0392H507.266V46.9732Z" fill="black"/>
<path d="M38.1924 4.64476C35.2072 2.44342 31.8069 0.98244 28.11 0.3112C26.914 0.0841029 26.4 0.0446267 24.3044 0.0248886C22.97 0.00515047 21.7542 0.0150557 21.5861 0.0347938C18.4922 0.469104 16.7525 0.923225 14.5977 1.84123C7.72781 4.7731 2.6965 10.6071 0.798627 17.8429C0.630592 18.4648 0.452638 19.2644 0.393345 19.6198C-0.861994 27.359 1.37194 34.8317 6.58117 40.3696C7.11492 40.9322 12.0771 45.9371 17.6125 51.4947L27.6751 61.613L37.8563 51.4453L35.0096 48.7208C30.9964 44.8907 17.2863 31.1792 16.5548 30.2612C15.8036 29.3234 15.3884 28.6422 14.9535 27.6354C13.9057 25.2268 13.9354 22.1666 15.0128 19.8665C16.2286 17.2901 18.5713 15.2566 21.2896 14.4273C22.11 14.1707 22.3077 14.1509 23.8596 14.1509C25.4115 14.1509 25.6092 14.1707 26.4296 14.4175C27.4774 14.7334 28.802 15.3849 29.7212 16.0364C30.1265 16.3128 33.6257 19.7185 38.7361 24.8023C43.9453 29.9749 47.4742 33.4102 48.1068 33.9136C49.8168 35.2759 52.1891 36.7467 53.9091 37.5365C58.0706 39.4318 62.4 40.261 67.0557 40.034C72.4429 39.7773 77.7015 37.8326 82.2782 34.3973C83.7213 33.3115 85.204 31.9196 90.0574 27.053C101.227 15.8785 101.237 15.8686 102.71 15.0887C106.328 13.154 111.319 14.0917 114.305 17.2704C115.56 18.603 116.262 20.0048 116.637 21.9198C117.24 25.0293 116.509 27.8723 114.482 30.3007C114.048 30.8338 101.84 43.1829 96.1167 48.8886C91.461 53.5381 88.7724 56.1738 85.9948 58.8094C82.3473 62.2842 79.9354 65.4234 78.3539 68.7796C76.1991 73.3501 75.3095 77.3975 75.2995 82.807C75.2897 85.6105 75.3786 86.5582 75.695 87.0517C75.9321 87.4071 76.0706 87.4959 77.1875 87.9401C81.2007 89.5394 84.4132 91.5728 88.1497 94.8897L89.4248 96.015L89.494 94.0703C89.5335 93.0042 89.5434 89.6084 89.5137 86.5384C89.4445 79.7468 89.5039 79.046 90.2848 76.7755C90.8086 75.2751 91.7477 73.5969 92.8449 72.1853C93.1019 71.8595 100.328 64.5744 108.898 55.9961C123.369 41.5245 125.277 39.5601 126.374 38.0794C127.856 36.0557 129.428 32.9068 130.031 30.7252C130.753 28.1092 131 26.4212 131 23.9139C131.01 20.8142 130.595 18.4549 129.557 15.6416C128.598 13.0355 127.441 11.0119 125.632 8.76113C121.56 3.70695 115.797 0.676391 109.115 0.0643648C107.672 -0.063969 105.29 0.00515048 103.777 0.222342C99.4478 0.854106 95.4248 2.60133 91.9256 5.37522C91.3622 5.81943 87.685 9.41263 82.9404 14.1608C78.5121 18.5734 74.5977 22.4331 74.232 22.7194C71.1974 25.1478 67.7575 26.2139 64.1694 25.8486C61.7279 25.6019 59.3456 24.6246 57.1513 22.9662C56.5384 22.5023 53.8596 19.8863 48.7987 14.8222C41.1973 7.21137 39.5862 5.66153 38.1924 4.64476Z" fill="black"/>
<path d="M83.83 50.0337C79.3621 46.1938 74.0738 43.8641 68.3407 43.2224C60.9272 42.3932 53.316 44.7328 47.7806 49.5303C44.8942 52.0376 10.2484 86.6272 6.15613 91.0891C3.42796 94.0703 1.64872 97.4267 0.591027 101.612C0.00782732 103.922 -0.17009 107.466 0.175898 110.092C0.680003 113.991 2.00455 117.456 4.24837 120.763C6.37357 123.892 9.3291 126.508 12.7393 128.295C16.1792 130.081 19.9057 130.97 24.0079 130.97C28.9601 130.97 33.171 129.736 37.026 127.15C38.2418 126.34 39.7146 125.126 40.7031 124.129L41.4247 123.389L40.8712 122.49C38.5482 118.729 37.0655 114.396 36.5713 109.855C36.512 109.351 36.4527 108.917 36.4428 108.907C36.4292 108.894 36.3692 108.871 36.2881 108.845C36.251 108.833 36.2095 108.821 36.166 108.808C35.9387 108.759 35.8003 108.868 34.9305 109.815C34.3868 110.398 33.1018 111.73 32.0639 112.767C30.2352 114.613 29.3456 115.324 28.11 115.945C27.3489 116.33 25.9057 116.745 24.9173 116.864C21.8629 117.249 18.5417 115.876 16.4461 113.369C15.6948 112.471 15.4082 111.997 14.9535 110.921C14.0935 108.887 13.9848 106.153 14.6866 103.971C14.9436 103.162 15.5861 101.938 16.1495 101.197C17.2369 99.7563 56.2023 60.8035 57.517 59.846C60.0574 58 62.9338 57.1214 65.9684 57.2695C69.349 57.4275 71.9981 58.5824 75.1612 61.2675C75.9915 61.9683 76.0211 61.9881 76.1892 61.8104C76.6735 61.2872 79.4413 58.385 81.4874 56.2429C84.5022 53.0939 85.7378 51.7711 85.7575 51.6625C85.7774 51.6033 85.5203 51.3565 85.1843 51.1196C84.8581 50.8827 84.2452 50.399 83.83 50.0337Z" fill="black"/>
<path d="M127.115 94.0308C125.692 91.869 125.366 91.5235 115.501 81.6125C112.387 78.4932 108.314 74.3669 106.436 72.4518L103.026 68.9672L100.555 71.4647C96.6505 75.4231 96.265 75.8871 95.5236 77.4073C94.802 78.888 94.634 79.4507 94.723 80.0726C94.8712 81.0202 95.0294 81.198 101.998 88.1277C108.275 94.3664 113.158 99.3516 114.018 100.368C114.927 101.454 115.955 103.3 116.361 104.564C117.092 106.844 116.924 109.282 115.886 111.375C115.066 113.033 113.711 114.475 112.011 115.501C109.352 117.1 106.189 117.347 103.342 116.163C102.542 115.827 101.356 115.126 100.822 114.662C100.624 114.504 96.8383 110.753 92.4099 106.35C87.9816 101.938 83.9882 98.009 83.5335 97.6142C80.5879 95.0575 77.1578 93.172 73.5302 92.0961C72.1859 91.6913 71.5137 91.5433 69.774 91.2668C68.4989 91.0596 68.0047 91.0398 65.2764 91.0398C62.0047 91.0497 61.6093 91.099 61.1051 91.5235L60.8283 91.7604L60.7987 98.7889L60.779 105.817L61.0458 105.768C61.204 105.738 61.7279 105.63 62.2122 105.521C66.0079 104.662 69.7246 105.344 73.0162 107.505C74.8943 108.739 76.2979 110.013 79.0656 113.024C81.4577 115.62 90.1563 124.188 91.7378 125.501C96.0574 129.094 101.346 130.99 107.039 130.99C113.682 130.99 119.563 128.512 124.199 123.744C127.422 120.437 129.685 116.133 130.565 111.622C130.96 109.608 131.069 106.479 130.812 104.179C130.644 102.678 130.09 100.349 129.527 98.8283C129.023 97.4464 127.906 95.2154 127.115 94.0308Z" fill="black"/>
<path d="M54.4429 72.2149C54.2551 71.1291 54.1958 70.9613 54.0178 70.9119C53.8992 70.8823 53.7114 70.8527 53.6027 70.8527C53.2863 70.8527 42.1957 82.0469 41.8794 82.6787C41.662 83.1229 41.652 83.2611 41.5927 86.4989C41.4939 91.6124 41.5038 104.238 41.6026 107.13C41.741 111.138 42.2155 113.478 43.4906 116.479C45.9618 122.293 50.5581 126.844 56.3506 129.232C59.3456 130.466 62.2221 131.019 65.6224 130.999C69.3885 130.99 72.6504 130.259 75.863 128.709C78.0574 127.653 79.8069 126.439 81.6851 124.672L82.5154 123.902L77.5533 118.946C74.8251 116.222 72.5417 113.991 72.4923 113.991C72.433 113.991 72.087 114.238 71.7015 114.544C68.746 116.913 65.8102 117.495 62.5582 116.39C59.5236 115.353 57.2205 113.162 56.3704 110.487C56.2705 110.173 56.189 109.919 56.1226 109.661C55.8271 108.515 55.8286 107.292 55.8366 100.418C55.8366 96.1236 55.7971 89.796 55.7378 86.3508C55.6697 82.1632 55.6544 80.365 55.4729 78.5838C55.3116 77.0016 55.0194 75.4328 54.4429 72.2149Z" fill="black"/>
</svg>
