<svg width="571" height="118" viewBox="0 0 571 118" fill="none" xmlns="http://www.w3.org/2000/svg">
<path d="M3.16841e-08 11.4024V54.4409C3.16841e-08 57.2865 0 59.1818 1.77518 60.8433C17.9894 76.0194 51.412 107.368 55.3887 111.351C60.0045 115.264 61.7797 111.351 61.7797 108.506V63.3332C61.7797 59.3494 59.2943 57.2303 58.2291 56.2194C42.4883 41.2804 10.2965 10.3354 6.03596 6.77844C0.354934 2.51018 -0.000122513 8.5569 3.16841e-08 11.4024Z" fill="white"/>
<path d="M67.1056 11.1025V54.141C67.1056 56.9866 67.1056 58.8819 68.8808 60.5434C85.095 75.7196 118.518 107.068 122.494 111.051C127.11 114.964 128.885 111.051 128.885 108.206V63.0333C128.885 59.0495 126.4 56.9304 125.335 55.9195C109.594 40.9805 77.4021 10.0355 73.1416 6.47854C67.4606 2.21028 67.1055 8.25701 67.1056 11.1025Z" fill="white"/>
<path d="M134.211 28.9211V5H158V11.2018C158 20.8884 157.29 28.0942 155.87 32.8194C154.331 37.6627 150.366 44.5142 143.975 53.3739L133.856 47.7037C139.182 38.6077 142.259 32.3469 143.088 28.9211H134.211Z" fill="white"/>
<path d="M287.859 25.8364L269.661 88.0684H252.699L241.353 44.5959L230.008 88.0684H212.933L194.623 25.8364H210.574L221.583 73.2406L233.49 25.8364H250.115L261.798 73.1283L272.806 25.8364H287.859Z" fill="white"/>
<path d="M346.356 55.6044C346.356 57.8511 346.206 59.8731 345.906 61.6704H300.412C300.786 66.1637 302.359 69.6834 305.13 72.2296C307.901 74.7758 311.308 76.0489 315.352 76.0489C321.193 76.0489 325.35 73.5401 327.821 68.5226H344.783C342.986 74.5137 339.541 79.4563 334.449 83.3505C329.356 87.1698 323.103 89.0794 315.689 89.0794C309.698 89.0794 304.306 87.7689 299.513 85.1478C294.795 82.4518 291.088 78.67 288.392 73.8023C285.771 68.9345 284.461 63.3179 284.461 56.9524C284.461 50.512 285.771 44.858 288.392 39.9903C291.013 35.1225 294.683 31.3781 299.401 28.757C304.119 26.136 309.548 24.8254 315.689 24.8254C321.605 24.8254 326.885 26.0985 331.528 28.6447C336.246 31.1909 339.878 34.823 342.424 39.5409C345.045 44.184 346.356 49.5385 346.356 55.6044ZM330.068 51.1111C329.993 47.0672 328.532 43.847 325.687 41.4506C322.841 38.9793 319.359 37.7436 315.24 37.7436C311.346 37.7436 308.05 38.9418 305.354 41.3382C302.733 43.6598 301.123 46.9174 300.524 51.1111H330.068Z" fill="white"/>
<path d="M365.698 34.9353C367.72 31.9398 370.491 29.5059 374.011 27.6337C377.605 25.7615 381.687 24.8254 386.255 24.8254C391.572 24.8254 396.365 26.136 400.633 28.757C404.977 31.3781 408.384 35.1225 410.855 39.9903C413.402 44.7831 414.675 50.3623 414.675 56.7278C414.675 63.0932 413.402 68.7473 410.855 73.6899C408.384 78.5576 404.977 82.3395 400.633 85.0355C396.365 87.7314 391.572 89.0794 386.255 89.0794C381.612 89.0794 377.53 88.1808 374.011 86.3835C370.566 84.5113 367.795 82.1148 365.698 79.1942V88.0684H349.971V4.94262H365.698V34.9353ZM398.611 56.7278C398.611 52.9833 397.825 49.7632 396.252 47.0672C394.755 44.2963 392.733 42.1995 390.186 40.7766C387.715 39.3537 385.019 38.6423 382.098 38.6423C379.253 38.6423 376.557 39.3912 374.011 40.8889C371.539 42.3118 369.517 44.4087 367.945 47.1795C366.447 49.9504 365.698 53.208 365.698 56.9524C365.698 60.6968 366.447 63.9545 367.945 66.7253C369.517 69.4962 371.539 71.6305 374.011 73.1283C376.557 74.5511 379.253 75.2626 382.098 75.2626C385.019 75.2626 387.715 74.5137 390.186 73.0159C392.733 71.5182 394.755 69.3839 396.252 66.613C397.825 63.8421 398.611 60.547 398.611 56.7278Z" fill="white"/>
<path d="M426.215 18.4225C423.444 18.4225 421.123 17.5613 419.251 15.8388C417.453 14.0415 416.555 11.8323 416.555 9.21124C416.555 6.59015 417.453 4.4184 419.251 2.69597C421.123 0.898657 423.444 0 426.215 0C428.986 0 431.27 0.898657 433.067 2.69597C434.94 4.4184 435.876 6.59015 435.876 9.21124C435.876 11.8323 434.94 14.0415 433.067 15.8388C431.27 17.5613 428.986 18.4225 426.215 18.4225ZM433.966 25.8364V88.0684H418.24V25.8364H433.966Z" fill="white"/>
<path d="M470.173 38.7546H459.277V88.0684H443.326V38.7546H436.249V25.8364H443.326V22.6911C443.326 15.0525 445.497 9.4359 449.841 5.84127C454.184 2.24664 460.737 0.561663 469.499 0.786329V14.0415C465.68 13.9666 463.021 14.6032 461.523 15.9512C460.026 17.2992 459.277 19.733 459.277 23.2528V25.8364H470.173V38.7546Z" fill="white"/>
<path d="M538.444 25.8364L499.914 117.499H483.176L496.656 86.4958L471.718 25.8364H489.355L505.418 69.309L521.706 25.8364H538.444Z" fill="white"/>
<path d="M569.854 14.9999C569.854 21.9035 564.258 27.4999 557.354 27.4999C550.45 27.4999 544.854 21.9035 544.854 14.9999C544.854 8.09638 550.45 2.49994 557.354 2.49994C564.258 2.49994 569.854 8.09638 569.854 14.9999Z" stroke="white"/>
<path d="M556.057 10.8947V10.7947H555.957H551.196H551.096V10.8947V11.6937V11.7937H551.196H553.023V18.421V18.521H553.123H554.041H554.141V18.421V11.7937H555.957H556.057V11.6937V10.8947ZM563.612 10.9486V10.8486H563.512H562.534H562.467L562.441 10.9101L559.952 16.8659L557.462 10.9101L557.436 10.8486H557.369H556.381H556.281V10.9486V18.421V18.521H556.381H557.299H557.399V18.421V13.3376L559.536 18.4595L559.562 18.521H559.629H560.274H560.341L560.367 18.4594L562.494 13.3495V18.421V18.521H562.594H563.512H563.612V18.421V10.9486Z" fill="white" stroke="white" stroke-width="0.2"/>
</svg>
